<svg version="1.2" xmlns="http://www.w3.org/2000/svg" viewBox="0 0 128 128" width="128" height="128"><style>.a{fill:#2e3092}.b{fill:#00a852}.c{fill:#be1e2d}.d{fill:#fefefe}</style><path class="a" d="m17.7 58c1.3-6.9 4.4-14.4 9.7-21 2.7-3.3 5.9-6.4 9.6-9 3.7-2.7 7.9-4.8 12.2-6.2 0.7-0.2 1.3-0.4 2-0.6q0.9-0.2 1.9-0.4c0.6-0.2 1.3-0.3 2-0.4l1.1-0.1q0.6-0.1 1.2-0.1c3-0.2 5.9 0.1 8.6 0.7 2.6 0.5 5.1 1.3 7.3 2.3q3.5 1.4 6.4 3.2c4 2.3 7.5 5 10.6 7.8 3.2 2.8 6.1 5.8 8.7 8.7-0.3 0.5-1.8 0.4-1.1 1.6 3.2 4.5 2.6 5.3 2 6.1-0.3 0.5-3-2.4-2.3-1.1-1.5-1.2-3.6-2.8-5-3.6-1.4-0.8-2.1-0.9-0.7 0.5 0.3 0.7 1.6 1.6 2.9 2.6 1.3 0.9 2.5 1.9 2.8 2.6 0.3 0.8-0.2 0.9-0.7 1.1-0.5 0.1-1 0.3-0.7 1 1.1 0.6 3.4 1.9 4.5 2.5 0.5 0.5 0 0.6-0.4 0.7-0.5 0.1-0.9 0.1-0.3 0.4 1.7 1 3.8 1.9 6.2 2.7 2.4 0.8 5 1.6 7.6 2 0.1 0.1 0.2 0.1 0.3 0.2-0.1-0.1-0.1-0.1-0.3-0.2-0.3 0-0.7 0-1.4-0.1-3-0.4-5.9-1.1-8.8-2-2.9-0.9-5.7-1.8-8.4-2.9-5.5-2-10.8-4.3-15.9-6.3-5-2.1-9.9-4-14.2-5.2-2.2-0.5-4.2-0.9-5.7-1q-0.3 0-0.6 0c-0.2 0-0.3 0-0.5 0-0.2 0-0.4 0-0.5 0q-0.2 0.1-0.4 0.1-0.2 0-0.4 0.1-0.3 0-0.5 0-0.6 0.2-1.3 0.3c-1.4 0.3-2.7 0.8-4.2 1.5q-2.2 1-4.5 2.8c-3.1 2.3-6.4 5.6-9.6 9.4-3.2 3.7-6.4 7.9-9.6 12.4-3.2 4.5-6.3 9.2-9.5 14.3-0.8 1.2-1.2 1.9-1.4 2.2q0 0.2 0 0.1 0 0 0-0.1c0-0.1 0.1-0.2 0.1-0.3 0.5-0.7 1.3-2.5 2-4.3-0.2 0.6-0.4 0.9-0.6 1.2-0.1 0.3-0.3 0.6-0.5 1.2-0.1 0 0.1-0.7 0.4-1.9 0.3-1.2 0.7-3.1 1.4-5.5l-0.6 1.8-0.6 1.8c-0.4 1.2-0.3 0-0.5-0.1 0.3-1.2 0.6-2.5 0.4-2.5-0.1-0.1-0.4-0.1-0.5-0.2-0.3 1.3-0.6 3.9-0.7 5.2 0.1-1.3 0.3-2.6 0.2-2.6-0.1 0-0.4-0.1-0.5-0.1 0.1-1.3 0.2-3 0.5-4.6 0.2-1.6 0.6-3.2 0.7-4.5l-0.7-0.2c-0.6 2.6-0.7 6.6-0.8 9.2-0.1-1.3-0.2-1.3-0.4-1.4-0.1-2 0-4 0.2-6 0.2-2 0.5-4 0.4-6.2q-0.3 2-0.5 4.1c-0.4-1.5-0.3-4 0.2-6.5 0.5-2.5 1.3-5.1 1.7-7.2z"/><path class="b" d="m82.7 90.7c-3.1 0.4-6.4 0.4-9.8 0.2-3.3-0.3-6.8-0.9-10.2-1.8-6.8-1.6-13.4-4.3-19.7-6.8-3.8-1.4-7.6-3.3-11.1-5.9-3.5-2.5-6.8-5.6-9.5-9.2l-1.1-1.3c-0.3-0.5-0.6-0.9-1-1.4q-0.4-0.8-0.9-1.6-0.5-0.7-0.9-1.5c-0.5-1-1-2-1.5-3l-0.6-1.5q-0.3-0.8-0.6-1.5c-1.4-4-2.3-8-2.8-11.8 0.6-0.3 1.8 0.6 1.9-0.8 0.1-5.3 1.1-5.6 2.2-6 0.5-0.2 1 3.4 1.2 2 0.6 1.7 1.4 3.9 2.1 5.3 0.4 0.6 0.7 1 0.9 1.1 0.1 0 0.2-0.3 0-1.2 0.2-0.7-0.4-2.1-0.9-3.5-0.5-1.3-0.9-2.7-0.7-3.4 0.2-0.7 0.7-0.6 1.2-0.5 0.6 0.1 1.2 0.2 1.3-0.5-0.5-1-1.6-3.1-2.1-4.1-0.1-0.6 0.4-0.5 0.8-0.3 0.4 0.1 0.8 0.3 0.5-0.2-0.7-1.6-1.9-3.3-3.2-5.2-1.4-1.8-2.9-3.8-4.5-5.6q-0.1-0.2-0.1-0.3c0 0.1 0 0.1 0.1 0.3 0.2 0.1 0.5 0.4 0.9 0.8 4 4 7.4 8.4 10.7 12.4 3.2 4.1 6.3 8 9.4 11.2q0.5 0.6 1.1 1.1c0.4 0.4 0.8 0.8 1.2 1.1l1.1 1.1 1.1 0.8c1.5 1.2 3.1 2.5 4.8 3.6q2.5 1.7 5.2 3.3c0.9 0.5 1.8 1 2.7 1.5 0.9 0.5 1.8 1.1 2.8 1.5 7.4 4 15.7 7.6 24.5 11.6q3.3 1.6 6.6 3.1 3.4 1.7 6.9 3.4c4.7 2.3 9.5 4.7 14.4 7.6 1.2 0.6 1.8 1 2.1 1.2q0.2 0 0.1 0 0 0-0.1 0c0 0-0.1-0.1-0.2-0.1-0.7-0.4-2.4-1.1-4.1-1.6 1.1 0.3 1.1 0.5 2.2 0.9 0 0.1-0.5 0-1.7-0.2q-0.9-0.1-2.2-0.2-1.3-0.2-3-0.4 1.7 0.3 3.5 0.6c1.1 0.3-0.1 0.3-0.1 0.6-1.1-0.1-2.3-0.2-2.3-0.1 0 0.2 0 0.5-0.1 0.7 1.2 0 3.6 0 4.7-0.1-1.1 0.1-2.3 0.1-2.3 0.2 0 0.1 0 0.3-0.1 0.5-1.1 0.1-2.6 0.2-4.1 0.3-1.5 0-2.9 0-4.1 0.1l-0.1 0.8c2.4 0.1 6-0.5 8.3-0.9-1.2 0.3-1.2 0.5-1.2 0.7-1.8 0.5-3.6 0.7-5.4 0.9-1.8 0.2-3.6 0.3-5.5 0.9q1.8-0.1 3.7-0.4c-1.3 0.8-3.5 1.3-5.8 1.4-2.3 0.1-4.7-0.1-6.6 0.1z"/><path class="c" d="m87.9 28.4c0.9 6.6 0.7 14-0.4 21.2-1 7.3-2.8 14.4-4 21-1.3 8-4.1 16-8.2 23.5-4 7.4-9.3 14.3-15.2 20-0.5-0.4-0.4-1.9-1.6-1.1-2.2 1.7-3.6 2.4-4.4 2.6-0.9 0.2-1.3-0.1-1.7-0.5-0.5-0.3 2.4-3 1.1-2.3 0.6-0.7 1.2-1.7 1.9-2.6 0.6-0.8 1.1-1.7 1.5-2.4 0.7-1.5 0.8-2.2-0.5-0.7-1.2 0.7-3.6 5.2-5.1 5.8-0.7 0.3-0.8-0.2-1-0.7-0.2-0.5-0.4-1-1-0.7-0.3 0.5-0.8 1.3-1.2 2.2-0.5 0.8-1 1.6-1.3 2.1-0.5 0.4-0.5 0-0.6-0.5-0.1-0.4-0.2-0.8-0.4-0.3q-0.4 0.6-0.8 1.3-0.3 0.7-0.7 1.4c-0.5 0.9-1 2-1.5 3.1q-0.8 1.7-1.6 3.4-0.8 1.7-1.6 3.6c-0.1 0-0.2 0.1-0.2 0.2 0-0.1 0.1-0.1 0.2-0.2 0.1-0.3 0.2-0.7 0.4-1.3 2.1-5.6 4.1-10.9 6-16.1 1.8-5.2 3.6-10.3 5.2-15.4 3.3-10.2 6.2-20.3 9.2-30.3 2.9-10.1 5.8-20.2 9.2-30.4 1.6-5.1 3.4-10.3 5.3-15.6 1.9-5.3 3.9-10.7 6.2-16.2 0.5-1.3 0.9-2 1-2.3q0-0.3 0-0.2 0 0.1 0 0.1c0 0.1 0 0.2-0.1 0.3-0.1 0.4-0.4 1.1-0.6 1.9-0.2 0.8-0.4 1.7-0.6 2.7 0.3-1.3 0.4-1.3 0.7-2.5 0.1 0 0 0.6-0.1 1.8q0 1-0.1 2.4c0 1 0 2.1-0.1 3.3 0.1-1.2 0.2-2.5 0.3-3.8 0.3-1.2 0.3 0 0.6 0 0 1.3-0.1 2.6 0.1 2.6 0.1 0 0.4 0 0.6 0-0.1-1.3-0.2-3.8-0.4-5.1 0.2 1.3 0.2 2.5 0.3 2.5 0.1 0 0.3 0 0.5 0 0.5 2.6 0.5 6.4 0.9 9h0.6c0-1.3-0.2-2.9-0.4-4.5-0.3-1.6-0.6-3.2-0.8-4.5 0.3 1.3 0.5 1.3 0.7 1.3 0.6 1.9 0.8 3.9 1.1 5.8 0.3 1.9 0.5 3.9 1.1 5.9q-0.2-2-0.5-3.9c0.4 0.6 0.7 1.5 1 2.6 0.2 1 0.4 2.2 0.5 3.4 0.2 2.5 0.2 5.1 0.5 7.1z"/><path class="d" d="m50 76.8c0.1-0.6 0.5-1 1-1.3 1-0.5 2.1-0.9 3-1.6 1.5-1.2 2.8-2.7 4.2-4 0.6-0.5 1.1-1 1.7-1.4 0.4-0.3 0.9-0.5 1.4-0.7 1.8-0.8 3-2.1 3.9-3.8 0.5-1 1.1-1.9 1.6-2.9 0.2-0.5 0.2-1 0.2-1.5-0.1-1.2-0.3-2.5 0.3-3.7 0.3-0.5 0.6-1 1-1.3 0.9-0.7 2-1.2 2.8-2 1.2-1.1 2.3-2.2 3.4-3.4 0.2-0.2 0.2-0.6 0.3-0.9 0-0.5 0-1 0-1.5 0.6 0.8 1.1 1.5 1.6 2.3 0 0-0.1 0.1-0.3 0.1-1-0.2-1.6 0.4-2.1 1.1-0.6 0.8-1.2 1.8-1.8 2.7-0.3 0.3-0.6 0.5-1 0.7-0.3 0.2-0.7 0.3-1 0.4-2.4 0.7-2.6 1.9-2.9 4 0 0.8 0.2 1.6 0.7 2.3 0.3 0.5 0.8 0.6 1.3 0.8 1 0.4 2 0.8 2.9 1.3 0.2 0 0.3 0.2 0.4 0.3q0 0.1-0.1 0.2c-0.3-0.2-0.7-0.3-1-0.5-0.8-0.6-1.7-0.9-2.7-1.1-0.5-0.2-0.9-0.6-1.5-0.9-0.5 1.2-1 2.4-1.6 3.7-0.6 1.3-1.4 2.6-2.6 3.5-0.2 0.1-0.4 0.3-0.6 0.3-2.6 0.4-4.3 2-5.6 4.2-0.4 0.6-1 1.2-1.6 1.6-1.2 0.7-2.5 1.4-3.8 2.1-0.4 0.2-0.7 0.4-0.8 0.9q-0.4 0-0.7 0z"/><path class="d" d="m83.4 40c0.3-0.8 0.9-1.1 1.5-1.2 0.8-0.1 1.6 0 2.4 0.1 1.1 0.2 1.6 1 1.7 2 0 1.3 0.1 2.6 0 3.8-0.1 0.7-0.5 1.3-0.7 2-0.1 0.2-0.1 0.5-0.1 0.7 0.6 0.9 0.6 1.9 0.3 2.9-0.3 0.8-0.5 1.7-0.7 2.6-0.1 0.3-0.1 0.6-0.1 1 0.1-0.1 0.2-0.1 0.2-0.1q2.7-0.9 5.3-1.9c0.4-0.1 0.7-0.4 1-0.6 0.6-0.5 1.2-1.1 1.8-1.7q0 0 0.1 0.1 0 0.1 0 0.1c-0.7 0.8-1.3 1.5-1.9 2.2-0.5 0.7-1.2 0.9-1.9 1.1-0.4 0.1-0.8 0.1-1.2 0.2q-1.3 0.4-2.6 0.8c-0.4 0.1-0.8 0.3-1.3 0.4-0.2-0.8-0.2-1.6 0-2.3 0.2-0.9 0.4-1.8 0.5-2.8 0.1-0.9-0.2-1.8-0.9-2.5-0.4-0.4-0.4-0.6 0.1-0.7 1-0.4 1.5-1 1.5-2 0-0.8-0.1-1.6 0-2.4 0.1-2-1.8-3.5-3.8-2.5-0.4 0.2-0.8 0.4-1.2 0.7z"/><path class="d" d="m71.8 55.7q1 0.3 2 0.6 0.1 0 0.2 0c0.5 0.2 1 0.6 1.6 0.6 0.5 0.1 1.1-0.2 1.6-0.4 0 0 0 0 0 0-0.5 1-0.5 0.9 0.4 1.6q2.4 1.9 4.8 4c0.7 0.6 0.8 1.5 0.3 2.4-0.5 1-1.3 1.6-2.1 2.2q-1.4 0.9-2.9 1.7c-0.6 0.3-1.2 0.3-1.8 0.5q-1.5 0.6-3 1.2-0.6 0.3-1.1 0.7c-0.7 0.6-0.6 1.1 0.2 1.6-0.4 0-1-0.2-1.1-0.6 0-0.3 0-0.7 0.2-0.8 0.4-0.5 0.9-0.9 1.4-1.1 1-0.6 2.1-1.2 3.3-1.6 0.7-0.3 1.6-0.3 2.4-0.6 1-0.3 1.8-0.8 2.3-1.7 0.2-0.4 0.6-0.6 0.9-0.9 0.2-0.2 0.4-0.3 0.6-0.6 0.6-0.8 0.7-1.4 0.1-1.9q-0.6-0.6-1.2-1c-0.9-0.8-1.9-1.5-2.8-2.3q-1.8-1.5-4-2.3c-0.8-0.3-1.6-0.7-2.4-1.1q0.1-0.1 0.1-0.2z"/><path class="d" d="m81.9 45.6q-1.2-0.5-2.3-0.9c-1.4-0.6-2.6-1.4-3.7-2.4-0.6-0.6-1.4-1.1-2.4-0.9-0.6 0.1-1.2 0.4-1.7 0.7-0.8 0.6-1.5 1.2-2.3 1.8-0.8 0.6-1.5 1.3-2.4 1.8-0.3 0.2-0.8 0.2-1.3 0.3q-1.6 0.4-3.1 0.8-0.2 0-0.4 0 0 0-0.1-0.1c0.5-0.2 0.9-0.5 1.4-0.7 1-0.3 2-0.4 2.9-0.7 0.4-0.1 0.7-0.2 1-0.5 1.5-1.3 3.2-2.6 5-3.6 0.5-0.2 1-0.3 1.5-0.4 0.3 0 0.6 0.1 0.9 0.3q2.9 1.8 5.9 3.5c0.4 0.3 0.7 0.6 1.1 0.8q0 0.1 0 0.2z"/><path class="d" d="m36.4 45.2q1.6 0.7 2.4 2.2c0.2 0.4 0.2 0.9 0.3 1.3 0 0.2-0.1 0.4-0.2 0.4-1.2 0.6-2.4 1.1-3.8 1q-0.6 0-1.2-0.2c-0.1 0-0.2-0.1-0.4-0.2q0.1 0 0.1-0.1 0.2 0 0.5 0.1c1.1 0.2 2.1 0.1 3.2-0.2 0.3-0.1 0.6-0.3 1-0.5 0.3-0.2 0.4-0.5 0.3-0.9-0.3-0.4-0.5-0.9-0.9-1.3-0.3-0.4-0.8-0.7-1.2-1-0.2-0.1-0.5-0.3-0.3-0.6q0.1 0 0.2 0z"/><path class="d" d="m49.4 85.9c0.5-0.3 1-0.8 1.2-1.4 0.1-0.5 0.1-1 0.1-1.5 0.2-2.6-0.2-5.2-1.1-7.7-0.7-2.4-1.6-4.8-2.8-7.1-0.3-0.6-0.6-1.3-1-1.8-0.4-0.7-0.9-1.3-1.4-1.9-0.1-0.1-0.3-0.1-0.4-0.2q-0.1-0.1-0.3-0.2 0 0 0.1-0.1c0.2 0.1 0.5 0.2 0.7 0.4 0.8 0.4 1.3 1.1 1.8 1.9 1.3 1.8 2.4 3.9 3.2 6 1.1 2.8 1.9 5.6 2.1 8.6 0 1.1 0 2.2-0.3 3.2-0.3 0.8-0.9 1.4-1.6 1.7-0.1 0.1-0.2 0.1-0.3 0.1z"/><path class="d" d="m32 52.3c-0.5 1.1-1.2 2.1-1.2 3.3 0 1.2-0.4 2.3-0.9 3.4q-0.6 1.4-0.9 2.8c-0.2 0.7-0.1 1.4 0.5 1.9q0.6 0.5 1.2 0.8c1.4 1 2.9 1.5 4.5 1.8q0.3 0.1 0.6 0.3 0.1 0 0.2 0c-0.4 0.6-1.1 0.9-1.6 0.7-1.8-0.6-3.5-1.4-4.9-2.8-0.6-0.6-1.1-1.3-1.1-2.2 0-0.6 0.1-1.2 0.2-1.8q0.6-2.7 1.2-5.4c0.2-0.8 0.4-1.5 1-2 0.3-0.4 0.8-0.6 1.1-0.9q0.1 0.1 0.1 0.1z"/><path class="d" d="m39 66.2c0-1.3-0.2-2.5-1.2-3.5q0.1 0.4 0.2 0.7 0.4 1 0.7 2.1c0.1 0.2 0.1 0.5 0 0.7 0 0.4-0.2 0.6-0.6 0.6q0 0 0 0c0.5-0.4 0.6-1 0.4-1.5-0.2-1.1-0.7-2.1-1.2-3.1q-0.3-0.4-0.5-0.8c-0.4-0.6-0.3-0.9 0.3-1.1q3-1 6-2.1c0.7-0.2 1.5-0.4 2.2-0.7 0.6-0.2 1-0.1 1.5 0.1 1.3 0.8 2.4 2.9 2.2 4.4-0.1 0.4-0.3 0.9-0.7 1.2-0.2 0.2-0.6 0.2-0.9 0-0.4-0.3-0.5-0.5-0.4-0.9 0.1-0.2 0.2-0.3 0.5-0.2 0.7 0.2 1.1-0.2 1-0.9-0.1-1.2-0.5-2.2-1.5-3-0.2-0.2-0.5-0.4-0.9-0.3-0.8 0.1-1.6 0.3-2.3 0.5-1.9 0.7-3.8 1.4-5.7 2.2-0.7 0.2-0.7 0.4-0.3 1 0.6 0.9 1.2 1.8 1.4 2.9q0.1 0.6 0.1 1.2c0 0.2-0.2 0.4-0.2 0.5q-0.1 0-0.1 0z"/><path class="d" d="m29.3 67c0-0.2 0.1-0.7 0.2-1.2 0-0.1 0.2-0.2 0.2-0.2 0.1 0 0.2 0.1 0.2 0.2q0.1 0.4 0 0.7c-0.1 0.7 0 1.5 0.2 2.2q0.7 2.2 1.4 4.4c0.1 0.3 0.3 0.6 0.4 0.9 0 0.1 0 0.2 0 0.4-0.1-0.1-0.3-0.1-0.4-0.2-0.3-0.4-0.6-0.8-0.8-1.2-0.9-1.8-1.3-3.7-1.4-6z"/><path class="d" d="m32.9 67c0.7 0.4 0.9 1 0.8 1.6-0.3 1.2-0.5 2.5-0.3 3.8 0.1 0.1 0.1 0.3 0.1 0.5 0.3 0.5 0.1 1.1-0.2 1.6-0.3 0.4-0.2 0.4-0.7 0.3 0.1-2.6 0.2-5.1 0.3-7.8z"/><path class="d" d="m40.7 49.8c0.2 0 0.5-0.1 0.7-0.1 0.5 0.1 0.9 0.2 1.3 0.5 2 1 3.2 2.5 4.1 4.5q0 0 0 0.2-0.1-0.2-0.3-0.4-0.2-0.2-0.4-0.4-0.9-1-1.9-1.9c-0.3-0.3-0.6-0.7-1-1-0.3-0.3-0.7-0.5-1.1-0.6q-0.8-0.1-1.4-0.6 0-0.1 0-0.2z"/><path class="d" d="m38.8 49.9c-0.5 0.2-0.9 0.4-1.3 0.5q0 0 0 0 0.4-0.2 0.8-0.5c0.2-0.1 0.3-0.2 0.4-0.3 0.1-0.1 0.1-0.2 0.2-0.2 0 0.1 0.1 0.1 0.1 0.2 0.3 1.2 0.5 2.4 0.3 3.6-0.2 0.9-0.8 1.5-1.5 1.6-0.2 0-0.4 0-0.5 0-1.3-0.4-2.4-1-3.1-2.2 0.1 0.1 0.3 0.3 0.5 0.4 0.7 0.4 1.3 0.9 2 1.2 1.4 0.6 2.2-0.4 2.3-1.5 0-0.9-0.2-1.9-0.2-2.8z"/><path class="d" d="m34 46.1c1.7-0.1 3.7 1.7 3.4 2.9-0.2-0.4-0.4-0.6-0.5-0.9-0.3-0.8-0.9-1.2-1.7-1.4q-0.4-0.1-0.8-0.3c-0.1-0.1-0.2-0.2-0.4-0.3z"/><path class="d" d="m48.1 61.1c-0.4-1.1-1-2.1-2-2.8 0.9-0.2 2.1 1.4 2 2.8z"/><path class="d" d="m35.5 49.1c-0.6 0.2-1.2 0-1.4-0.4 0.5 0.1 1 0.1 1.4 0.4z"/><path class="d" d="m37.3 50.5c-0.8 0.5-1.5 0.4-2.3 0.4 0.7-0.1 1.5-0.2 2.3-0.4z"/></svg>